<svg width="243" height="149" viewBox="0 0 243 149" fill="none" xmlns="http://www.w3.org/2000/svg">
<circle cx="74.5" cy="74.5" r="74" transform="matrix(-1 0 0 1 243 0)" stroke="url(#paint0_linear_10494_654)"/>
<path d="M0 85.5H188L176 97.5" stroke="white"/>
<path d="M1.58523 71V57.9091H6.00852C7.03551 57.9091 7.875 58.0945 8.52699 58.4652C9.18324 58.8317 9.66903 59.3281 9.98438 59.9545C10.2997 60.581 10.4574 61.2798 10.4574 62.0511C10.4574 62.8224 10.2997 63.5234 9.98438 64.1541C9.6733 64.7848 9.19176 65.2876 8.53977 65.6626C7.88778 66.0334 7.05256 66.2188 6.03409 66.2188H2.86364V64.8125H5.98295C6.68608 64.8125 7.25071 64.6911 7.67685 64.4482C8.10298 64.2053 8.41193 63.8771 8.60369 63.4638C8.79972 63.0462 8.89773 62.5753 8.89773 62.0511C8.89773 61.527 8.79972 61.0582 8.60369 60.6449C8.41193 60.2315 8.10085 59.9077 7.67045 59.6733C7.24006 59.4347 6.66903 59.3153 5.95739 59.3153H3.17045V71H1.58523ZM34.9465 64.4545C34.9465 65.8352 34.6972 67.0284 34.1986 68.0341C33.7 69.0398 33.0161 69.8153 32.1467 70.3608C31.2774 70.9062 30.2845 71.179 29.1681 71.179C28.0516 71.179 27.0587 70.9062 26.1894 70.3608C25.32 69.8153 24.6361 69.0398 24.1375 68.0341C23.6389 67.0284 23.3896 65.8352 23.3896 64.4545C23.3896 63.0739 23.6389 61.8807 24.1375 60.875C24.6361 59.8693 25.32 59.0938 26.1894 58.5483C27.0587 58.0028 28.0516 57.7301 29.1681 57.7301C30.2845 57.7301 31.2774 58.0028 32.1467 58.5483C33.0161 59.0938 33.7 59.8693 34.1986 60.875C34.6972 61.8807 34.9465 63.0739 34.9465 64.4545ZM33.4124 64.4545C33.4124 63.321 33.2227 62.3643 32.8435 61.5845C32.4685 60.8047 31.9592 60.2145 31.3158 59.8139C30.6766 59.4134 29.9607 59.2131 29.1681 59.2131C28.3754 59.2131 27.6574 59.4134 27.0139 59.8139C26.3747 60.2145 25.8655 60.8047 25.4862 61.5845C25.1112 62.3643 24.9237 63.321 24.9237 64.4545C24.9237 65.5881 25.1112 66.5447 25.4862 67.3246C25.8655 68.1044 26.3747 68.6946 27.0139 69.0952C27.6574 69.4957 28.3754 69.696 29.1681 69.696C29.9607 69.696 30.6766 69.4957 31.3158 69.0952C31.9592 68.6946 32.4685 68.1044 32.8435 67.3246C33.2227 66.5447 33.4124 65.5881 33.4124 64.4545ZM48.5019 71V57.9091H52.9252C53.948 57.9091 54.7875 58.0838 55.4437 58.4332C56.1 58.7784 56.5858 59.2536 56.9011 59.8587C57.2164 60.4638 57.3741 61.152 57.3741 61.9233C57.3741 62.6946 57.2164 63.3786 56.9011 63.9751C56.5858 64.5717 56.1021 65.0405 55.4501 65.3814C54.7981 65.718 53.965 65.8864 52.9508 65.8864H49.3713V64.4545H52.8997C53.5985 64.4545 54.161 64.3523 54.5872 64.1477C55.0176 63.9432 55.3286 63.6534 55.5204 63.2784C55.7164 62.8991 55.8144 62.4474 55.8144 61.9233C55.8144 61.3991 55.7164 60.9411 55.5204 60.549C55.3244 60.157 55.0112 59.8544 54.5808 59.6413C54.1504 59.424 53.5815 59.3153 52.8741 59.3153H50.0872V71H48.5019ZM54.6639 65.1193L57.8855 71H56.0446L52.8741 65.1193H54.6639ZM70.1897 59.3153V57.9091H80.0079V59.3153H75.8914V71H74.3062V59.3153H70.1897ZM93.3444 71V57.9091H101.194V59.3153H94.9297V63.7386H100.606V65.1449H94.9297V71H93.3444ZM125.844 64.4545C125.844 65.8352 125.595 67.0284 125.096 68.0341C124.598 69.0398 123.914 69.8153 123.045 70.3608C122.175 70.9062 121.182 71.179 120.066 71.179C118.949 71.179 117.957 70.9062 117.087 70.3608C116.218 69.8153 115.534 69.0398 115.035 68.0341C114.537 67.0284 114.288 65.8352 114.288 64.4545C114.288 63.0739 114.537 61.8807 115.035 60.875C115.534 59.8693 116.218 59.0938 117.087 58.5483C117.957 58.0028 118.949 57.7301 120.066 57.7301C121.182 57.7301 122.175 58.0028 123.045 58.5483C123.914 59.0938 124.598 59.8693 125.096 60.875C125.595 61.8807 125.844 63.0739 125.844 64.4545ZM124.31 64.4545C124.31 63.321 124.121 62.3643 123.741 61.5845C123.366 60.8047 122.857 60.2145 122.214 59.8139C121.574 59.4134 120.859 59.2131 120.066 59.2131C119.273 59.2131 118.555 59.4134 117.912 59.8139C117.273 60.2145 116.763 60.8047 116.384 61.5845C116.009 62.3643 115.822 63.321 115.822 64.4545C115.822 65.5881 116.009 66.5447 116.384 67.3246C116.763 68.1044 117.273 68.6946 117.912 69.0952C118.555 69.4957 119.273 69.696 120.066 69.696C120.859 69.696 121.574 69.4957 122.214 69.0952C122.857 68.6946 123.366 68.1044 123.741 67.3246C124.121 66.5447 124.31 65.5881 124.31 64.4545ZM139.4 71V57.9091H140.985V69.5938H147.07V71H139.4ZM162 57.9091V71H160.415V57.9091H162ZM187.114 64.4545C187.114 65.8352 186.865 67.0284 186.366 68.0341C185.868 69.0398 185.184 69.8153 184.314 70.3608C183.445 70.9062 182.452 71.179 181.336 71.179C180.219 71.179 179.226 70.9062 178.357 70.3608C177.488 69.8153 176.804 69.0398 176.305 68.0341C175.806 67.0284 175.557 65.8352 175.557 64.4545C175.557 63.0739 175.806 61.8807 176.305 60.875C176.804 59.8693 177.488 59.0938 178.357 58.5483C179.226 58.0028 180.219 57.7301 181.336 57.7301C182.452 57.7301 183.445 58.0028 184.314 58.5483C185.184 59.0938 185.868 59.8693 186.366 60.875C186.865 61.8807 187.114 63.0739 187.114 64.4545ZM185.58 64.4545C185.58 63.321 185.39 62.3643 185.011 61.5845C184.636 60.8047 184.127 60.2145 183.483 59.8139C182.844 59.4134 182.128 59.2131 181.336 59.2131C180.543 59.2131 179.825 59.4134 179.181 59.8139C178.542 60.2145 178.033 60.8047 177.654 61.5845C177.279 62.3643 177.091 63.321 177.091 64.4545C177.091 65.5881 177.279 66.5447 177.654 67.3246C178.033 68.1044 178.542 68.6946 179.181 69.0952C179.825 69.4957 180.543 69.696 181.336 69.696C182.128 69.696 182.844 69.4957 183.483 69.0952C184.127 68.6946 184.636 68.1044 185.011 67.3246C185.39 66.5447 185.58 65.5881 185.58 64.4545Z" fill="white"/>
<defs>
<linearGradient id="paint0_linear_10494_654" x1="173.795" y1="74.3863" x2="-26.3878" y2="136.716" gradientUnits="userSpaceOnUse">
<stop stop-color="white" stop-opacity="0"/>
<stop offset="1" stop-color="white"/>
</linearGradient>
</defs>
</svg>
